{
	"asset":{
		"generator":"Khronos glTF Blender I/O v4.1.63",
		"version":"2.0"
	},
	"extensionsUsed":[
		"KHR_materials_specular",
		"KHR_materials_ior"
	],
	"scene":0,
	"scenes":[
		{
			"name":"Scene",
			"nodes":[
				20,
				21,
				26,
				31
			]
		}
	],
	"nodes":[
		{
			"mesh":0,
			"name":"cactus_1_cacturs_1_0",
			"scale":[
				1.2177867889404297,
				1.2177870273590088,
				1.2177869081497192
			],
			"translation":[
				-0.8100758790969849,
				-6.5742716789245605,
				0.34569987654685974
			]
		},
		{
			"children":[
				0
			],
			"name":"cactus_1",
			"rotation":[
				-0.6914516687393188,
				-0.013985850848257542,
				0.10384763777256012,
				0.7147829532623291
			],
			"scale":[
				461.25738525390625,
				461.25738525390625,
				461.2573547363281
			],
			"translation":[
				-3324.097900390625,
				-152.9132080078125,
				0
			]
		},
		{
			"mesh":1,
			"name":"cactus_2_cacturs_2_0",
			"scale":[
				6.2738189697265625,
				6.2738189697265625,
				6.2738189697265625
			],
			"translation":[
				-253.45135498046875,
				38.191951751708984,
				9.431119918823242
			]
		},
		{
			"children":[
				2
			],
			"name":"cactus_2",
			"rotation":[
				-0.70710688829422,
				0,
				0,
				0.7071066498756409
			],
			"scale":[
				100,
				99.99999237060547,
				99.99999237060547
			],
			"translation":[
				-265.01763916015625,
				0,
				0
			]
		},
		{
			"mesh":2,
			"name":"cactus_3_cacturs_3_0",
			"scale":[
				3.1348233222961426,
				3.1348233222961426,
				3.1348233222961426
			],
			"translation":[
				-232.71209716796875,
				103.09182739257812,
				36.01089096069336
			]
		},
		{
			"children":[
				4
			],
			"name":"cactus_3",
			"rotation":[
				-0.70710688829422,
				0,
				0,
				0.7071066498756409
			],
			"scale":[
				100,
				99.99999237060547,
				99.99999237060547
			],
			"translation":[
				-543.2459106445312,
				0,
				0
			]
		},
		{
			"mesh":3,
			"name":"cactus_4_cacturs_4_0",
			"scale":[
				5.271522045135498,
				5.27152156829834,
				5.27152156829834
			],
			"translation":[
				-170.75326538085938,
				55.856529235839844,
				1.692152909527067e-05
			]
		},
		{
			"children":[
				6
			],
			"name":"cactus_4",
			"rotation":[
				-0.70710688829422,
				0,
				0,
				0.7071066498756409
			],
			"scale":[
				100,
				99.99999237060547,
				99.99999237060547
			],
			"translation":[
				0,
				0,
				-290.8045654296875
			]
		},
		{
			"mesh":4,
			"name":"cactus_5_cacturs_5_0",
			"scale":[
				6.430578231811523,
				6.430578231811523,
				6.430578231811523
			],
			"translation":[
				-21.143659591674805,
				42.000911712646484,
				7.7147040367126465
			]
		},
		{
			"children":[
				8
			],
			"name":"cactus_5",
			"rotation":[
				-0.70710688829422,
				0,
				0,
				0.7071066498756409
			],
			"scale":[
				100,
				99.99999237060547,
				99.99999237060547
			],
			"translation":[
				-274.4908752441406,
				0,
				-290.8045654296875
			]
		},
		{
			"mesh":5,
			"name":"cactus_6_cacturs_6_0",
			"rotation":[
				-0.056533701717853546,
				-0.022721948102116585,
				-0.0038842272479087114,
				0.9981345534324646
			],
			"scale":[
				4.769277095794678,
				4.7692790031433105,
				4.7692790031433105
			],
			"translation":[
				-105.9494400024414,
				-4.136478900909424,
				-0.020437557250261307
			]
		},
		{
			"children":[
				10
			],
			"name":"cactus_6",
			"rotation":[
				-0.70710688829422,
				0,
				0,
				0.7071066498756409
			],
			"scale":[
				100,
				99.99999237060547,
				99.99999237060547
			],
			"translation":[
				-543.4878540039062,
				0,
				-291.64642333984375
			]
		},
		{
			"mesh":6,
			"name":"cactus_7_cacturs_7_0",
			"scale":[
				4.600906848907471,
				4.600906848907471,
				4.600906848907471
			],
			"translation":[
				49.31236267089844,
				13.86686897277832,
				4.200915554974927e-06
			]
		},
		{
			"children":[
				12
			],
			"name":"cactus_7",
			"rotation":[
				-0.70710688829422,
				0,
				0,
				0.7071066498756409
			],
			"scale":[
				100,
				99.99999237060547,
				99.99999237060547
			],
			"translation":[
				-0.18223537504673004,
				0,
				-598.4375
			]
		},
		{
			"mesh":7,
			"name":"cactus_8_cacturs_8_0",
			"scale":[
				6.334266185760498,
				6.334265232086182,
				6.334265232086182
			],
			"translation":[
				-218.81712341308594,
				-8.404540061950684,
				-5.650864601135254
			]
		},
		{
			"children":[
				14
			],
			"name":"cactus_8",
			"rotation":[
				-0.70710688829422,
				0,
				0,
				0.7071066498756409
			],
			"scale":[
				100,
				99.99999237060547,
				99.99999237060547
			],
			"translation":[
				-267.2196044921875,
				0,
				-598.8187866210938
			]
		},
		{
			"mesh":8,
			"name":"cactus_9_cacturs_9_0",
			"scale":[
				5.288399696350098,
				5.288400173187256,
				5.288400173187256
			],
			"translation":[
				-77.54708099365234,
				83.70883178710938,
				12.000920295715332
			]
		},
		{
			"children":[
				16
			],
			"name":"cactus_9",
			"rotation":[
				-0.70710688829422,
				0,
				0,
				0.7071066498756409
			],
			"scale":[
				100,
				99.99999237060547,
				99.99999237060547
			],
			"translation":[
				-553.3644409179688,
				0,
				-598.8187866210938
			]
		},
		{
			"children":[
				1,
				3,
				5,
				7,
				9,
				11,
				13,
				15,
				17
			],
			"name":"RootNode"
		},
		{
			"children":[
				18
			],
			"name":"ad56133f0eb347599ae3219ff2ceede9.fbx",
			"rotation":[
				0.70710688829422,
				0,
				0,
				0.7071066498756409
			],
			"scale":[
				0.009999999776482582,
				0.010000000707805157,
				0.010000000707805157
			]
		},
		{
			"children":[
				19
			],
			"name":"Sketchfab_model",
			"rotation":[
				-0.70710688829422,
				0,
				0,
				0.7071066498756409
			]
		},
		{
			"mesh":9,
			"name":"Plane.001",
			"scale":[
				55.516876220703125,
				55.516876220703125,
				55.516876220703125
			],
			"translation":[
				15.83026123046875,
				5.642226696014404,
				0.4245491027832031
			]
		},
		{
			"mesh":10,
			"name":"cactus_3_cacturs_3_0.001",
			"rotation":[
				-0.01025434210896492,
				0.055381882935762405,
				-0.18646365404129028,
				0.9808461666107178
			],
			"scale":[
				3.1348233222961426,
				3.1348233222961426,
				3.1348230838775635
			],
			"translation":[
				-232.7002410888672,
				103.09527587890625,
				26.57760238647461
			]
		},
		{
			"children":[
				22
			],
			"name":"cactus_3.001",
			"rotation":[
				-0.70710688829422,
				0,
				0,
				0.7071066498756409
			],
			"scale":[
				100,
				100,
				99.99999237060547
			],
			"translation":[
				-543.2472534179688,
				0,
				1.0861520422622561e-05
			]
		},
		{
			"children":[
				23
			],
			"name":"RootNode.001"
		},
		{
			"children":[
				24
			],
			"name":"ad56133f0eb347599ae3219ff2ceede9.fbx.001",
			"rotation":[
				0.70710688829422,
				0,
				0,
				0.7071066498756409
			],
			"scale":[
				0.010000000707805157,
				0.010000000707805157,
				0.010000001639127731
			]
		},
		{
			"children":[
				25
			],
			"name":"Sketchfab_model.001",
			"rotation":[
				-0.7072315216064453,
				0.0033007946331053972,
				0.002413025824353099,
				0.70697021484375
			],
			"translation":[
				214.1074981689453,
				0,
				0
			]
		},
		{
			"mesh":11,
			"name":"cactus_4_cacturs_4_0.001",
			"scale":[
				4.055449962615967,
				4.055449485778809,
				4.055449485778809
			],
			"translation":[
				-170.75326538085938,
				102.40491485595703,
				20.40426254272461
			]
		},
		{
			"children":[
				27
			],
			"name":"cactus_4.001",
			"rotation":[
				-0.70710688829422,
				0,
				0,
				0.7071066498756409
			],
			"scale":[
				100,
				99.99999237060547,
				99.99999237060547
			],
			"translation":[
				0,
				0,
				-290.8045654296875
			]
		},
		{
			"children":[
				28
			],
			"name":"RootNode.002"
		},
		{
			"children":[
				29
			],
			"name":"ad56133f0eb347599ae3219ff2ceede9.fbx.002",
			"rotation":[
				0.70710688829422,
				0,
				0,
				0.7071066498756409
			],
			"scale":[
				0.009999999776482582,
				0.010000000707805157,
				0.010000000707805157
			]
		},
		{
			"children":[
				30
			],
			"name":"Sketchfab_model.002",
			"rotation":[
				-0.70710688829422,
				0,
				0,
				0.7071066498756409
			],
			"translation":[
				120.12260437011719,
				0,
				0
			]
		}
	],
	"materials":[
		{
			"doubleSided":true,
			"extensions":{
				"KHR_materials_specular":{
					"specularColorFactor":[
						0.0,
						0.0,
						0.0
					]
				},
				"KHR_materials_ior":{
					"ior":1000
				}
			},
			"name":"cacturs_1.001",
			"normalTexture":{
				"index":0
			},
			"pbrMetallicRoughness":{
				"baseColorTexture":{
					"index":1
				},
				"metallicFactor":0,
				"roughnessFactor":0.800000011920929
			}
		},
		{
			"doubleSided":true,
			"extensions":{
				"KHR_materials_specular":{
					"specularColorFactor":[
						0.0,
						0.0,
						0.0
					]
				},
				"KHR_materials_ior":{
					"ior":1000
				}
			},
			"name":"cacturs_2.001",
			"normalTexture":{
				"index":2
			},
			"pbrMetallicRoughness":{
				"baseColorTexture":{
					"index":3
				},
				"metallicFactor":0,
				"roughnessFactor":0.8211145401000977
			}
		},
		{
			"doubleSided":true,
			"extensions":{
				"KHR_materials_specular":{
					"specularColorFactor":[
						0.0,
						0.0,
						0.0
					]
				},
				"KHR_materials_ior":{
					"ior":1000
				}
			},
			"name":"cacturs_3.001",
			"normalTexture":{
				"index":4
			},
			"pbrMetallicRoughness":{
				"baseColorTexture":{
					"index":5
				},
				"metallicFactor":0,
				"roughnessFactor":0.8211145401000977
			}
		},
		{
			"doubleSided":true,
			"extensions":{
				"KHR_materials_specular":{
					"specularColorFactor":[
						0.0,
						0.0,
						0.0
					]
				},
				"KHR_materials_ior":{
					"ior":1000
				}
			},
			"name":"cacturs_4.001",
			"normalTexture":{
				"index":6
			},
			"pbrMetallicRoughness":{
				"baseColorTexture":{
					"index":7
				},
				"metallicFactor":0,
				"roughnessFactor":0.8211145401000977
			}
		},
		{
			"doubleSided":true,
			"extensions":{
				"KHR_materials_specular":{
					"specularColorFactor":[
						0.0,
						0.0,
						0.0
					]
				},
				"KHR_materials_ior":{
					"ior":1000
				}
			},
			"name":"cacturs_5.001",
			"normalTexture":{
				"index":8
			},
			"pbrMetallicRoughness":{
				"baseColorTexture":{
					"index":9
				},
				"metallicFactor":0,
				"roughnessFactor":0.8211145401000977
			}
		},
		{
			"doubleSided":true,
			"extensions":{
				"KHR_materials_specular":{
					"specularColorFactor":[
						0.0,
						0.0,
						0.0
					]
				},
				"KHR_materials_ior":{
					"ior":1000
				}
			},
			"name":"cacturs_6.001",
			"normalTexture":{
				"index":10
			},
			"pbrMetallicRoughness":{
				"baseColorTexture":{
					"index":11
				},
				"metallicFactor":0,
				"roughnessFactor":0.8211145401000977
			}
		},
		{
			"doubleSided":true,
			"extensions":{
				"KHR_materials_specular":{
					"specularColorFactor":[
						0.0,
						0.0,
						0.0
					]
				},
				"KHR_materials_ior":{
					"ior":1000
				}
			},
			"name":"cacturs_7.001",
			"normalTexture":{
				"index":12
			},
			"pbrMetallicRoughness":{
				"baseColorTexture":{
					"index":13
				},
				"metallicFactor":0,
				"roughnessFactor":0.8211145401000977
			}
		},
		{
			"doubleSided":true,
			"extensions":{
				"KHR_materials_specular":{
					"specularColorFactor":[
						0.0,
						0.0,
						0.0
					]
				},
				"KHR_materials_ior":{
					"ior":1000
				}
			},
			"name":"cacturs_8.001",
			"normalTexture":{
				"index":14
			},
			"pbrMetallicRoughness":{
				"baseColorTexture":{
					"index":15
				},
				"metallicFactor":0,
				"roughnessFactor":0.8211145401000977
			}
		},
		{
			"doubleSided":true,
			"extensions":{
				"KHR_materials_specular":{
					"specularColorFactor":[
						0.0,
						0.0,
						0.0
					]
				},
				"KHR_materials_ior":{
					"ior":1000
				}
			},
			"name":"cacturs_9.001",
			"normalTexture":{
				"index":16
			},
			"pbrMetallicRoughness":{
				"baseColorTexture":{
					"index":17
				},
				"metallicFactor":0,
				"roughnessFactor":0.8211145401000977
			}
		},
		{
			"doubleSided":true,
			"name":"Material.001",
			"pbrMetallicRoughness":{
				"baseColorFactor":[
					0.8006537556648254,
					0.637454628944397,
					0.01186036504805088,
					1
				],
				"metallicFactor":0.06735751032829285,
				"roughnessFactor":0.53108811378479
			}
		},
		{
			"doubleSided":true,
			"extensions":{
				"KHR_materials_specular":{
					"specularColorFactor":[
						0.0,
						0.0,
						0.0
					]
				},
				"KHR_materials_ior":{
					"ior":1000
				}
			},
			"name":"cacturs_3.002",
			"normalTexture":{
				"index":18
			},
			"pbrMetallicRoughness":{
				"baseColorTexture":{
					"index":19
				},
				"metallicFactor":0,
				"roughnessFactor":0.8211145401000977
			}
		},
		{
			"doubleSided":true,
			"extensions":{
				"KHR_materials_specular":{
					"specularColorFactor":[
						0.0,
						0.0,
						0.0
					]
				},
				"KHR_materials_ior":{
					"ior":1000
				}
			},
			"name":"cacturs_4.002",
			"normalTexture":{
				"index":20
			},
			"pbrMetallicRoughness":{
				"baseColorTexture":{
					"index":21
				},
				"metallicFactor":0,
				"roughnessFactor":0.8211145401000977
			}
		}
	],
	"meshes":[
		{
			"name":"cactus_1_cacturs_1_0",
			"primitives":[
				{
					"attributes":{
						"POSITION":0,
						"NORMAL":1,
						"TEXCOORD_0":2,
						"TEXCOORD_1":3
					},
					"indices":4,
					"material":0
				}
			]
		},
		{
			"name":"cactus_2_cacturs_2_0",
			"primitives":[
				{
					"attributes":{
						"POSITION":5,
						"NORMAL":6,
						"TEXCOORD_0":7,
						"TEXCOORD_1":8
					},
					"indices":9,
					"material":1
				}
			]
		},
		{
			"name":"cactus_3_cacturs_3_0",
			"primitives":[
				{
					"attributes":{
						"POSITION":10,
						"NORMAL":11,
						"TEXCOORD_0":12,
						"TEXCOORD_1":13
					},
					"indices":14,
					"material":2
				}
			]
		},
		{
			"name":"cactus_4_cacturs_4_0",
			"primitives":[
				{
					"attributes":{
						"POSITION":15,
						"NORMAL":16,
						"TEXCOORD_0":17,
						"TEXCOORD_1":18
					},
					"indices":19,
					"material":3
				}
			]
		},
		{
			"name":"cactus_5_cacturs_5_0",
			"primitives":[
				{
					"attributes":{
						"POSITION":20,
						"NORMAL":21,
						"TEXCOORD_0":22,
						"TEXCOORD_1":23
					},
					"indices":24,
					"material":4
				}
			]
		},
		{
			"name":"cactus_6_cacturs_6_0",
			"primitives":[
				{
					"attributes":{
						"POSITION":25,
						"NORMAL":26,
						"TEXCOORD_0":27,
						"TEXCOORD_1":28
					},
					"indices":29,
					"material":5
				}
			]
		},
		{
			"name":"cactus_7_cacturs_7_0",
			"primitives":[
				{
					"attributes":{
						"POSITION":30,
						"NORMAL":31,
						"TEXCOORD_0":32,
						"TEXCOORD_1":33
					},
					"indices":34,
					"material":6
				}
			]
		},
		{
			"name":"cactus_8_cacturs_8_0",
			"primitives":[
				{
					"attributes":{
						"POSITION":35,
						"NORMAL":36,
						"TEXCOORD_0":37,
						"TEXCOORD_1":38
					},
					"indices":39,
					"material":7
				}
			]
		},
		{
			"name":"cactus_9_cacturs_9_0",
			"primitives":[
				{
					"attributes":{
						"POSITION":40,
						"NORMAL":41,
						"TEXCOORD_0":42,
						"TEXCOORD_1":43
					},
					"indices":44,
					"material":8
				}
			]
		},
		{
			"name":"Plane.013",
			"primitives":[
				{
					"attributes":{
						"POSITION":45,
						"NORMAL":46,
						"TEXCOORD_0":47
					},
					"indices":48,
					"material":9
				}
			]
		},
		{
			"name":"cactus_3_cacturs_3_0.001",
			"primitives":[
				{
					"attributes":{
						"POSITION":49,
						"NORMAL":50,
						"TEXCOORD_0":51,
						"TEXCOORD_1":52
					},
					"indices":14,
					"material":10
				}
			]
		},
		{
			"name":"cactus_4_cacturs_4_0.001",
			"primitives":[
				{
					"attributes":{
						"POSITION":53,
						"NORMAL":54,
						"TEXCOORD_0":55,
						"TEXCOORD_1":56
					},
					"indices":19,
					"material":11
				}
			]
		}
	],
	"textures":[
		{
			"sampler":0,
			"source":0
		},
		{
			"sampler":0,
			"source":1
		},
		{
			"sampler":0,
			"source":2
		},
		{
			"sampler":0,
			"source":3
		},
		{
			"sampler":0,
			"source":4
		},
		{
			"sampler":0,
			"source":5
		},
		{
			"sampler":0,
			"source":6
		},
		{
			"sampler":0,
			"source":7
		},
		{
			"sampler":0,
			"source":8
		},
		{
			"sampler":0,
			"source":9
		},
		{
			"sampler":0,
			"source":10
		},
		{
			"sampler":0,
			"source":11
		},
		{
			"sampler":0,
			"source":12
		},
		{
			"sampler":0,
			"source":13
		},
		{
			"sampler":0,
			"source":14
		},
		{
			"sampler":0,
			"source":15
		},
		{
			"sampler":0,
			"source":16
		},
		{
			"sampler":0,
			"source":17
		},
		{
			"sampler":0,
			"source":4
		},
		{
			"sampler":0,
			"source":5
		},
		{
			"sampler":0,
			"source":6
		},
		{
			"sampler":0,
			"source":7
		}
	],
	"images":[
		{
			"mimeType":"image/png",
			"name":"cacturs_1_normal",
			"uri":"textures/cacturs_1_normal.png"
		},
		{
			"mimeType":"image/png",
			"name":"cacturs_1_diffuse",
			"uri":"textures/cacturs_1_diffuse.png"
		},
		{
			"mimeType":"image/png",
			"name":"cacturs_2_normal",
			"uri":"textures/cacturs_2_normal.png"
		},
		{
			"mimeType":"image/png",
			"name":"cacturs_2_diffuse",
			"uri":"textures/cacturs_2_diffuse.png"
		},
		{
			"mimeType":"image/png",
			"name":"cacturs_3_normal",
			"uri":"textures/cacturs_3_normal.png"
		},
		{
			"mimeType":"image/png",
			"name":"cacturs_3_diffuse",
			"uri":"textures/cacturs_3_diffuse.png"
		},
		{
			"mimeType":"image/png",
			"name":"cacturs_4_normal",
			"uri":"textures/cacturs_4_normal.png"
		},
		{
			"mimeType":"image/png",
			"name":"cacturs_4_diffuse",
			"uri":"textures/cacturs_4_diffuse.png"
		},
		{
			"mimeType":"image/png",
			"name":"cacturs_5_normal",
			"uri":"textures/cacturs_5_normal.png"
		},
		{
			"mimeType":"image/png",
			"name":"cacturs_5_diffuse",
			"uri":"textures/cacturs_5_diffuse.png"
		},
		{
			"mimeType":"image/png",
			"name":"cacturs_6_normal",
			"uri":"textures/cacturs_6_normal.png"
		},
		{
			"mimeType":"image/png",
			"name":"cacturs_6_diffuse",
			"uri":"textures/cacturs_6_diffuse.png"
		},
		{
			"mimeType":"image/png",
			"name":"cacturs_7_normal",
			"uri":"textures/cacturs_7_normal.png"
		},
		{
			"mimeType":"image/png",
			"name":"cacturs_7_diffuse",
			"uri":"textures/cacturs_7_diffuse.png"
		},
		{
			"mimeType":"image/png",
			"name":"cacturs_8_normal",
			"uri":"textures/cacturs_8_normal.png"
		},
		{
			"mimeType":"image/png",
			"name":"cacturs_8_diffuse",
			"uri":"textures/cacturs_8_diffuse.png"
		},
		{
			"mimeType":"image/png",
			"name":"cacturs_9_normal",
			"uri":"textures/cacturs_9_normal.png"
		},
		{
			"mimeType":"image/png",
			"name":"cacturs_9_diffuse",
			"uri":"textures/cacturs_9_diffuse.png"
		}
	],
	"accessors":[
		{
			"bufferView":0,
			"componentType":5126,
			"count":257,
			"max":[
				0.9693352580070496,
				0.21794255077838898,
				1.9552242755889893
			],
			"min":[
				-0.9284151196479797,
				-0.21794261038303375,
				0
			],
			"type":"VEC3"
		},
		{
			"bufferView":1,
			"componentType":5126,
			"count":257,
			"type":"VEC3"
		},
		{
			"bufferView":2,
			"componentType":5126,
			"count":257,
			"type":"VEC2"
		},
		{
			"bufferView":3,
			"componentType":5126,
			"count":257,
			"type":"VEC2"
		},
		{
			"bufferView":4,
			"componentType":5123,
			"count":1104,
			"type":"SCALAR"
		},
		{
			"bufferView":5,
			"componentType":5126,
			"count":248,
			"max":[
				0.9693352580070496,
				0.21794255077838898,
				2.9031357765197754
			],
			"min":[
				-0.9304172396659851,
				-0.21794261038303375,
				0
			],
			"type":"VEC3"
		},
		{
			"bufferView":6,
			"componentType":5126,
			"count":248,
			"type":"VEC3"
		},
		{
			"bufferView":7,
			"componentType":5126,
			"count":248,
			"type":"VEC2"
		},
		{
			"bufferView":8,
			"componentType":5126,
			"count":248,
			"type":"VEC2"
		},
		{
			"bufferView":9,
			"componentType":5123,
			"count":1056,
			"type":"SCALAR"
		},
		{
			"bufferView":10,
			"componentType":5126,
			"count":279,
			"max":[
				1.0759706497192383,
				0.21794255077838898,
				3.2491531372070312
			],
			"min":[
				-1.2029500007629395,
				-0.21794261038303375,
				0
			],
			"type":"VEC3"
		},
		{
			"bufferView":11,
			"componentType":5126,
			"count":279,
			"type":"VEC3"
		},
		{
			"bufferView":12,
			"componentType":5126,
			"count":279,
			"type":"VEC2"
		},
		{
			"bufferView":13,
			"componentType":5126,
			"count":279,
			"type":"VEC2"
		},
		{
			"bufferView":14,
			"componentType":5123,
			"count":1206,
			"type":"SCALAR"
		},
		{
			"bufferView":15,
			"componentType":5126,
			"count":537,
			"max":[
				1.0289885997772217,
				0.8375808596611023,
				3.0342814922332764
			],
			"min":[
				-1.1771650314331055,
				-1.283301591873169,
				0
			],
			"type":"VEC3"
		},
		{
			"bufferView":16,
			"componentType":5126,
			"count":537,
			"type":"VEC3"
		},
		{
			"bufferView":17,
			"componentType":5126,
			"count":537,
			"type":"VEC2"
		},
		{
			"bufferView":18,
			"componentType":5126,
			"count":537,
			"type":"VEC2"
		},
		{
			"bufferView":19,
			"componentType":5123,
			"count":2460,
			"type":"SCALAR"
		},
		{
			"bufferView":20,
			"componentType":5126,
			"count":516,
			"max":[
				0.9940823316574097,
				0.7983860969543457,
				2.716438055038452
			],
			"min":[
				-1.005558967590332,
				-1.1275631189346313,
				0
			],
			"type":"VEC3"
		},
		{
			"bufferView":21,
			"componentType":5126,
			"count":516,
			"type":"VEC3"
		},
		{
			"bufferView":22,
			"componentType":5126,
			"count":516,
			"type":"VEC2"
		},
		{
			"bufferView":23,
			"componentType":5126,
			"count":516,
			"type":"VEC2"
		},
		{
			"bufferView":24,
			"componentType":5123,
			"count":2424,
			"type":"SCALAR"
		},
		{
			"bufferView":25,
			"componentType":5126,
			"count":515,
			"max":[
				1.0486353635787964,
				0.8812645077705383,
				3.2493724822998047
			],
			"min":[
				-0.854631781578064,
				-1.1313130855560303,
				-0.00015223026275634766
			],
			"type":"VEC3"
		},
		{
			"bufferView":26,
			"componentType":5126,
			"count":515,
			"type":"VEC3"
		},
		{
			"bufferView":27,
			"componentType":5126,
			"count":515,
			"type":"VEC2"
		},
		{
			"bufferView":28,
			"componentType":5126,
			"count":515,
			"type":"VEC2"
		},
		{
			"bufferView":29,
			"componentType":5123,
			"count":2412,
			"type":"SCALAR"
		},
		{
			"bufferView":30,
			"componentType":5126,
			"count":269,
			"max":[
				0.9675615429878235,
				0.21794255077838898,
				4.114410877227783
			],
			"min":[
				-0.9728690385818481,
				-0.47495323419570923,
				0
			],
			"type":"VEC3"
		},
		{
			"bufferView":31,
			"componentType":5126,
			"count":269,
			"type":"VEC3"
		},
		{
			"bufferView":32,
			"componentType":5126,
			"count":269,
			"type":"VEC2"
		},
		{
			"bufferView":33,
			"componentType":5126,
			"count":269,
			"type":"VEC2"
		},
		{
			"bufferView":34,
			"componentType":5123,
			"count":1218,
			"type":"SCALAR"
		},
		{
			"bufferView":35,
			"componentType":5126,
			"count":313,
			"max":[
				0.9566177129745483,
				0.6899315714836121,
				4.117282390594482
			],
			"min":[
				-0.7194692492485046,
				-0.8048603534698486,
				0
			],
			"type":"VEC3"
		},
		{
			"bufferView":36,
			"componentType":5126,
			"count":313,
			"type":"VEC3"
		},
		{
			"bufferView":37,
			"componentType":5126,
			"count":313,
			"type":"VEC2"
		},
		{
			"bufferView":38,
			"componentType":5126,
			"count":313,
			"type":"VEC2"
		},
		{
			"bufferView":39,
			"componentType":5123,
			"count":1416,
			"type":"SCALAR"
		},
		{
			"bufferView":40,
			"componentType":5126,
			"count":374,
			"max":[
				1.114923119544983,
				0.7344180941581726,
				4.117282390594482
			],
			"min":[
				-0.6397955417633057,
				-0.8389372229576111,
				0
			],
			"type":"VEC3"
		},
		{
			"bufferView":41,
			"componentType":5126,
			"count":374,
			"type":"VEC3"
		},
		{
			"bufferView":42,
			"componentType":5126,
			"count":374,
			"type":"VEC2"
		},
		{
			"bufferView":43,
			"componentType":5126,
			"count":374,
			"type":"VEC2"
		},
		{
			"bufferView":44,
			"componentType":5123,
			"count":1734,
			"type":"SCALAR"
		},
		{
			"bufferView":45,
			"componentType":5126,
			"count":207749,
			"max":[
				6.583098411560059,
				0.7161244750022888,
				1.9781103134155273
			],
			"min":[
				-6.389901161193848,
				-0.3268745541572571,
				-2.1107730865478516
			],
			"type":"VEC3"
		},
		{
			"bufferView":46,
			"componentType":5126,
			"count":207749,
			"type":"VEC3"
		},
		{
			"bufferView":47,
			"componentType":5126,
			"count":207749,
			"type":"VEC2"
		},
		{
			"bufferView":48,
			"componentType":5125,
			"count":1220736,
			"type":"SCALAR"
		},
		{
			"bufferView":49,
			"componentType":5126,
			"count":279,
			"max":[
				1.0759706497192383,
				0.21794255077838898,
				3.2491531372070312
			],
			"min":[
				-1.2029500007629395,
				-0.21794261038303375,
				0
			],
			"type":"VEC3"
		},
		{
			"bufferView":50,
			"componentType":5126,
			"count":279,
			"type":"VEC3"
		},
		{
			"bufferView":51,
			"componentType":5126,
			"count":279,
			"type":"VEC2"
		},
		{
			"bufferView":52,
			"componentType":5126,
			"count":279,
			"type":"VEC2"
		},
		{
			"bufferView":53,
			"componentType":5126,
			"count":537,
			"max":[
				1.0289885997772217,
				0.8375808596611023,
				3.0342814922332764
			],
			"min":[
				-1.1771650314331055,
				-1.283301591873169,
				0
			],
			"type":"VEC3"
		},
		{
			"bufferView":54,
			"componentType":5126,
			"count":537,
			"type":"VEC3"
		},
		{
			"bufferView":55,
			"componentType":5126,
			"count":537,
			"type":"VEC2"
		},
		{
			"bufferView":56,
			"componentType":5126,
			"count":537,
			"type":"VEC2"
		}
	],
	"bufferViews":[
		{
			"buffer":0,
			"byteLength":3084,
			"byteOffset":0,
			"target":34962
		},
		{
			"buffer":0,
			"byteLength":3084,
			"byteOffset":3084,
			"target":34962
		},
		{
			"buffer":0,
			"byteLength":2056,
			"byteOffset":6168,
			"target":34962
		},
		{
			"buffer":0,
			"byteLength":2056,
			"byteOffset":8224,
			"target":34962
		},
		{
			"buffer":0,
			"byteLength":2208,
			"byteOffset":10280,
			"target":34963
		},
		{
			"buffer":0,
			"byteLength":2976,
			"byteOffset":12488,
			"target":34962
		},
		{
			"buffer":0,
			"byteLength":2976,
			"byteOffset":15464,
			"target":34962
		},
		{
			"buffer":0,
			"byteLength":1984,
			"byteOffset":18440,
			"target":34962
		},
		{
			"buffer":0,
			"byteLength":1984,
			"byteOffset":20424,
			"target":34962
		},
		{
			"buffer":0,
			"byteLength":2112,
			"byteOffset":22408,
			"target":34963
		},
		{
			"buffer":0,
			"byteLength":3348,
			"byteOffset":24520,
			"target":34962
		},
		{
			"buffer":0,
			"byteLength":3348,
			"byteOffset":27868,
			"target":34962
		},
		{
			"buffer":0,
			"byteLength":2232,
			"byteOffset":31216,
			"target":34962
		},
		{
			"buffer":0,
			"byteLength":2232,
			"byteOffset":33448,
			"target":34962
		},
		{
			"buffer":0,
			"byteLength":2412,
			"byteOffset":35680,
			"target":34963
		},
		{
			"buffer":0,
			"byteLength":6444,
			"byteOffset":38092,
			"target":34962
		},
		{
			"buffer":0,
			"byteLength":6444,
			"byteOffset":44536,
			"target":34962
		},
		{
			"buffer":0,
			"byteLength":4296,
			"byteOffset":50980,
			"target":34962
		},
		{
			"buffer":0,
			"byteLength":4296,
			"byteOffset":55276,
			"target":34962
		},
		{
			"buffer":0,
			"byteLength":4920,
			"byteOffset":59572,
			"target":34963
		},
		{
			"buffer":0,
			"byteLength":6192,
			"byteOffset":64492,
			"target":34962
		},
		{
			"buffer":0,
			"byteLength":6192,
			"byteOffset":70684,
			"target":34962
		},
		{
			"buffer":0,
			"byteLength":4128,
			"byteOffset":76876,
			"target":34962
		},
		{
			"buffer":0,
			"byteLength":4128,
			"byteOffset":81004,
			"target":34962
		},
		{
			"buffer":0,
			"byteLength":4848,
			"byteOffset":85132,
			"target":34963
		},
		{
			"buffer":0,
			"byteLength":6180,
			"byteOffset":89980,
			"target":34962
		},
		{
			"buffer":0,
			"byteLength":6180,
			"byteOffset":96160,
			"target":34962
		},
		{
			"buffer":0,
			"byteLength":4120,
			"byteOffset":102340,
			"target":34962
		},
		{
			"buffer":0,
			"byteLength":4120,
			"byteOffset":106460,
			"target":34962
		},
		{
			"buffer":0,
			"byteLength":4824,
			"byteOffset":110580,
			"target":34963
		},
		{
			"buffer":0,
			"byteLength":3228,
			"byteOffset":115404,
			"target":34962
		},
		{
			"buffer":0,
			"byteLength":3228,
			"byteOffset":118632,
			"target":34962
		},
		{
			"buffer":0,
			"byteLength":2152,
			"byteOffset":121860,
			"target":34962
		},
		{
			"buffer":0,
			"byteLength":2152,
			"byteOffset":124012,
			"target":34962
		},
		{
			"buffer":0,
			"byteLength":2436,
			"byteOffset":126164,
			"target":34963
		},
		{
			"buffer":0,
			"byteLength":3756,
			"byteOffset":128600,
			"target":34962
		},
		{
			"buffer":0,
			"byteLength":3756,
			"byteOffset":132356,
			"target":34962
		},
		{
			"buffer":0,
			"byteLength":2504,
			"byteOffset":136112,
			"target":34962
		},
		{
			"buffer":0,
			"byteLength":2504,
			"byteOffset":138616,
			"target":34962
		},
		{
			"buffer":0,
			"byteLength":2832,
			"byteOffset":141120,
			"target":34963
		},
		{
			"buffer":0,
			"byteLength":4488,
			"byteOffset":143952,
			"target":34962
		},
		{
			"buffer":0,
			"byteLength":4488,
			"byteOffset":148440,
			"target":34962
		},
		{
			"buffer":0,
			"byteLength":2992,
			"byteOffset":152928,
			"target":34962
		},
		{
			"buffer":0,
			"byteLength":2992,
			"byteOffset":155920,
			"target":34962
		},
		{
			"buffer":0,
			"byteLength":3468,
			"byteOffset":158912,
			"target":34963
		},
		{
			"buffer":0,
			"byteLength":2492988,
			"byteOffset":162380,
			"target":34962
		},
		{
			"buffer":0,
			"byteLength":2492988,
			"byteOffset":2655368,
			"target":34962
		},
		{
			"buffer":0,
			"byteLength":1661992,
			"byteOffset":5148356,
			"target":34962
		},
		{
			"buffer":0,
			"byteLength":4882944,
			"byteOffset":6810348,
			"target":34963
		},
		{
			"buffer":0,
			"byteLength":3348,
			"byteOffset":11693292,
			"target":34962
		},
		{
			"buffer":0,
			"byteLength":3348,
			"byteOffset":11696640,
			"target":34962
		},
		{
			"buffer":0,
			"byteLength":2232,
			"byteOffset":11699988,
			"target":34962
		},
		{
			"buffer":0,
			"byteLength":2232,
			"byteOffset":11702220,
			"target":34962
		},
		{
			"buffer":0,
			"byteLength":6444,
			"byteOffset":11704452,
			"target":34962
		},
		{
			"buffer":0,
			"byteLength":6444,
			"byteOffset":11710896,
			"target":34962
		},
		{
			"buffer":0,
			"byteLength":4296,
			"byteOffset":11717340,
			"target":34962
		},
		{
			"buffer":0,
			"byteLength":4296,
			"byteOffset":11721636,
			"target":34962
		}
	],
	"samplers":[
		{
			"magFilter":9729,
			"minFilter":9987
		}
	],
	"buffers":[
		{
			"byteLength":11725932,
			"uri":"teren.bin"
		}
	]
}
