{
	"asset":{
		"generator":"Khronos glTF Blender I/O v4.0.43",
		"version":"2.0"
	},
	"scene":0,
	"scenes":[
		{
			"name":"Scene",
			"nodes":[
				0,
				1,
				2
			]
		}
	],
	"nodes":[
		{
			"mesh":0,
			"name":"table",
			"rotation":[
				0,
				-0.2048189342021942,
				0,
				0.9787998795509338
			],
			"scale":[
				3.501948118209839,
				3.501948118209839,
				3.501948118209839
			],
			"translation":[
				-0.02044057846069336,
				5.898197650909424,
				-0.027083873748779297
			]
		},
		{
			"camera":0,
			"name":"Camera",
			"rotation":[
				-0.0022053790744394064,
				-0.9906611442565918,
				-0.01613927073776722,
				0.1353711485862732
			],
			"scale":[
				1.2407995462417603,
				1.2407996654510498,
				1.2407994270324707
			],
			"translation":[
				-1.3995604515075684,
				4.265562534332275,
				-5.224712371826172
			]
		},
		{
			"mesh":1,
			"name":"room",
			"scale":[
				9.980066299438477,
				9.980066299438477,
				9.980066299438477
			]
		}
	],
	"cameras":[
		{
			"name":"Camera.001",
			"perspective":{
				"aspectRatio":1.7777777777777777,
				"yfov":0.937270173412135,
				"zfar":1000,
				"znear":0.10000000149011612
			},
			"type":"perspective"
		}
	],
	"materials":[
		{
			"doubleSided":true,
			"name":"Material.001",
			"pbrMetallicRoughness":{
				"baseColorTexture":{
					"index":0
				},
				"metallicFactor":0,
				"roughnessFactor":0.5
			}
		},
		{
			"doubleSided":true,
			"name":"Material.006",
			"pbrMetallicRoughness":{
				"baseColorTexture":{
					"index":1
				},
				"metallicFactor":0,
				"roughnessFactor":0.5
			}
		},
		{
			"doubleSided":true,
			"name":"Material.007",
			"pbrMetallicRoughness":{
				"baseColorTexture":{
					"index":2
				},
				"metallicFactor":0,
				"roughnessFactor":0.3134714961051941
			}
		},
		{
			"doubleSided":true,
			"name":"Material.008",
			"pbrMetallicRoughness":{
				"baseColorTexture":{
					"index":3
				},
				"metallicFactor":0,
				"roughnessFactor":0.3134714961051941
			}
		},
		{
			"doubleSided":true,
			"name":"Material.009",
			"pbrMetallicRoughness":{
				"baseColorTexture":{
					"index":4
				},
				"metallicFactor":0,
				"roughnessFactor":0.5
			}
		}
	],
	"meshes":[
		{
			"name":"Cylinder",
			"primitives":[
				{
					"attributes":{
						"POSITION":0,
						"NORMAL":1,
						"TEXCOORD_0":2
					},
					"indices":3,
					"material":0
				}
			]
		},
		{
			"name":"Plane.007",
			"primitives":[
				{
					"attributes":{
						"POSITION":4,
						"NORMAL":5,
						"TEXCOORD_0":6
					},
					"indices":7,
					"material":1
				},
				{
					"attributes":{
						"POSITION":8,
						"NORMAL":9,
						"TEXCOORD_0":10
					},
					"indices":11,
					"material":2
				},
				{
					"attributes":{
						"POSITION":12,
						"NORMAL":13,
						"TEXCOORD_0":14
					},
					"indices":15,
					"material":3
				},
				{
					"attributes":{
						"POSITION":16,
						"NORMAL":17,
						"TEXCOORD_0":18
					},
					"indices":19,
					"material":4
				}
			]
		}
	],
	"textures":[
		{
			"sampler":0,
			"source":0
		},
		{
			"sampler":0,
			"source":1
		},
		{
			"sampler":0,
			"source":2
		},
		{
			"sampler":0,
			"source":3
		},
		{
			"sampler":0,
			"source":4
		}
	],
	"images":[
		{
			"mimeType":"image/png",
			"name":"wood prepix",
			"uri":"wood%20prepix.png"
		},
		{
			"mimeType":"image/jpeg",
			"name":"stena2",
			"uri":"stena2.jpg"
		},
		{
			"mimeType":"image/jpeg",
			"name":"floor2",
			"uri":"floor2.jpg"
		},
		{
			"mimeType":"image/jpeg",
			"name":"floor",
			"uri":"floor.jpg"
		},
		{
			"mimeType":"image/jpeg",
			"name":"sloup",
			"uri":"sloup.jpg"
		}
	],
	"accessors":[
		{
			"bufferView":0,
			"componentType":5126,
			"count":612,
			"max":[
				1,
				-0.9503049850463867,
				1
			],
			"min":[
				-1,
				-1.6863279342651367,
				-1
			],
			"type":"VEC3"
		},
		{
			"bufferView":1,
			"componentType":5126,
			"count":612,
			"type":"VEC3"
		},
		{
			"bufferView":2,
			"componentType":5126,
			"count":612,
			"type":"VEC2"
		},
		{
			"bufferView":3,
			"componentType":5123,
			"count":984,
			"type":"SCALAR"
		},
		{
			"bufferView":4,
			"componentType":5126,
			"count":255,
			"max":[
				1.4160555601119995,
				1.146531343460083,
				1.1114166975021362
			],
			"min":[
				-0.5839444398880005,
				0,
				-0.8885833024978638
			],
			"type":"VEC3"
		},
		{
			"bufferView":5,
			"componentType":5126,
			"count":255,
			"type":"VEC3"
		},
		{
			"bufferView":6,
			"componentType":5126,
			"count":255,
			"type":"VEC2"
		},
		{
			"bufferView":7,
			"componentType":5123,
			"count":510,
			"type":"SCALAR"
		},
		{
			"bufferView":8,
			"componentType":5126,
			"count":29362,
			"max":[
				1.4160555601119995,
				0.0028907821979373693,
				1.1114166975021362
			],
			"min":[
				-0.5839444398880005,
				0,
				-0.8885833024978638
			],
			"type":"VEC3"
		},
		{
			"bufferView":9,
			"componentType":5126,
			"count":29362,
			"type":"VEC3"
		},
		{
			"bufferView":10,
			"componentType":5126,
			"count":29362,
			"type":"VEC2"
		},
		{
			"bufferView":11,
			"componentType":5123,
			"count":49152,
			"type":"SCALAR"
		},
		{
			"bufferView":12,
			"componentType":5126,
			"count":30001,
			"max":[
				1.4160555601119995,
				1.1477454900741577,
				1.1114166975021362
			],
			"min":[
				-0.5839444398880005,
				1.1448546648025513,
				-0.8885833024978638
			],
			"type":"VEC3"
		},
		{
			"bufferView":13,
			"componentType":5126,
			"count":30001,
			"type":"VEC3"
		},
		{
			"bufferView":14,
			"componentType":5126,
			"count":30001,
			"type":"VEC2"
		},
		{
			"bufferView":15,
			"componentType":5123,
			"count":49152,
			"type":"SCALAR"
		},
		{
			"bufferView":16,
			"componentType":5126,
			"count":482,
			"max":[
				1.4200109243392944,
				1.1436660289764404,
				1.135881781578064
			],
			"min":[
				-0.591156005859375,
				-0.0015163787174969912,
				-0.8929599523544312
			],
			"type":"VEC3"
		},
		{
			"bufferView":17,
			"componentType":5126,
			"count":482,
			"type":"VEC3"
		},
		{
			"bufferView":18,
			"componentType":5126,
			"count":482,
			"type":"VEC2"
		},
		{
			"bufferView":19,
			"componentType":5123,
			"count":720,
			"type":"SCALAR"
		}
	],
	"bufferViews":[
		{
			"buffer":0,
			"byteLength":7344,
			"byteOffset":0,
			"target":34962
		},
		{
			"buffer":0,
			"byteLength":7344,
			"byteOffset":7344,
			"target":34962
		},
		{
			"buffer":0,
			"byteLength":4896,
			"byteOffset":14688,
			"target":34962
		},
		{
			"buffer":0,
			"byteLength":1968,
			"byteOffset":19584,
			"target":34963
		},
		{
			"buffer":0,
			"byteLength":3060,
			"byteOffset":21552,
			"target":34962
		},
		{
			"buffer":0,
			"byteLength":3060,
			"byteOffset":24612,
			"target":34962
		},
		{
			"buffer":0,
			"byteLength":2040,
			"byteOffset":27672,
			"target":34962
		},
		{
			"buffer":0,
			"byteLength":1020,
			"byteOffset":29712,
			"target":34963
		},
		{
			"buffer":0,
			"byteLength":352344,
			"byteOffset":30732,
			"target":34962
		},
		{
			"buffer":0,
			"byteLength":352344,
			"byteOffset":383076,
			"target":34962
		},
		{
			"buffer":0,
			"byteLength":234896,
			"byteOffset":735420,
			"target":34962
		},
		{
			"buffer":0,
			"byteLength":98304,
			"byteOffset":970316,
			"target":34963
		},
		{
			"buffer":0,
			"byteLength":360012,
			"byteOffset":1068620,
			"target":34962
		},
		{
			"buffer":0,
			"byteLength":360012,
			"byteOffset":1428632,
			"target":34962
		},
		{
			"buffer":0,
			"byteLength":240008,
			"byteOffset":1788644,
			"target":34962
		},
		{
			"buffer":0,
			"byteLength":98304,
			"byteOffset":2028652,
			"target":34963
		},
		{
			"buffer":0,
			"byteLength":5784,
			"byteOffset":2126956,
			"target":34962
		},
		{
			"buffer":0,
			"byteLength":5784,
			"byteOffset":2132740,
			"target":34962
		},
		{
			"buffer":0,
			"byteLength":3856,
			"byteOffset":2138524,
			"target":34962
		},
		{
			"buffer":0,
			"byteLength":1440,
			"byteOffset":2142380,
			"target":34963
		}
	],
	"samplers":[
		{
			"magFilter":9729,
			"minFilter":9987
		}
	],
	"buffers":[
		{
			"byteLength":2143820,
			"uri":"room.bin"
		}
	]
}
