{
	"asset":{
		"generator":"Khronos glTF Blender I/O v4.0.43",
		"version":"2.0"
	},
	"scene":0,
	"scenes":[
		{
			"name":"Scene",
			"nodes":[
				0,
				1,
				2,
				3,
				4,
				5
			]
		}
	],
	"nodes":[
		{
			"mesh":0,
			"name":"cowboy-idle0000",
			"rotation":[
				-0.45451951026916504,
				0.5416752099990845,
				0.5416752099990845,
				0.4545195698738098
			],
			"scale":[
				-4.933444499969482,
				-4.933444499969482,
				-4.933444976806641
			],
			"translation":[
				20.79772186279297,
				2.528055429458618,
				6.039874076843262
			]
		},
		{
			"mesh":1,
			"name":"cowboy-idle0001",
			"rotation":[
				0.4545195400714874,
				0.5416752099990845,
				-0.5416752099990845,
				0.45451948046684265
			],
			"scale":[
				5.770742893218994,
				5.770742893218994,
				5.770742893218994
			],
			"translation":[
				11.958669662475586,
				3.303504705429077,
				-8.673379898071289
			]
		},
		{
			"mesh":2,
			"name":"cowboy-idle0002",
			"rotation":[
				-0.4627969264984131,
				0.5486017465591431,
				0.5346204042434692,
				0.4461345672607422
			],
			"scale":[
				-3.267483949661255,
				-3.267483949661255,
				-3.267483949661255
			],
			"translation":[
				18.184986114501953,
				1.1784390211105347,
				-0.4198176860809326
			]
		},
		{
			"mesh":3,
			"name":"cowboy-idle0000.001",
			"rotation":[
				0.4545195698738098,
				0.5416752099990845,
				-0.5416752099990845,
				0.45451951026916504
			],
			"scale":[
				4.933444499969482,
				4.933444499969482,
				4.933444976806641
			],
			"translation":[
				16.074237823486328,
				9.839591026306152,
				-8.793646812438965
			]
		},
		{
			"mesh":4,
			"name":"cowboy-idle0002.001",
			"rotation":[
				0.44613462686538696,
				0.534620463848114,
				-0.5486018061637878,
				0.46279698610305786
			],
			"scale":[
				3.267483949661255,
				3.267483949661255,
				3.267483949661255
			],
			"translation":[
				18.49669075012207,
				9.637797355651855,
				3.3596882820129395
			]
		},
		{
			"mesh":5,
			"name":"cowboy-idle0001.001",
			"rotation":[
				-0.45451948046684265,
				0.5416752099990845,
				0.5416752099990845,
				0.4545195400714874
			],
			"scale":[
				-5.770742893218994,
				-5.770742893218994,
				-5.770742893218994
			],
			"translation":[
				14.102348327636719,
				3.299604654312134,
				0.4690179228782654
			]
		}
	],
	"materials":[
		{
			"alphaMode":"BLEND",
			"doubleSided":true,
			"name":"cowboy-idle0000",
			"pbrMetallicRoughness":{
				"baseColorTexture":{
					"index":0
				},
				"metallicFactor":0,
				"roughnessFactor":0.5
			}
		},
		{
			"alphaMode":"BLEND",
			"doubleSided":true,
			"name":"cowboy-idle0001",
			"pbrMetallicRoughness":{
				"baseColorTexture":{
					"index":1
				},
				"metallicFactor":0,
				"roughnessFactor":0.5
			}
		},
		{
			"alphaMode":"BLEND",
			"doubleSided":true,
			"name":"cowboy-idle0002",
			"pbrMetallicRoughness":{
				"baseColorTexture":{
					"index":2
				},
				"metallicFactor":0,
				"roughnessFactor":0.5
			}
		}
	],
	"meshes":[
		{
			"name":"cowboy-idle0000",
			"primitives":[
				{
					"attributes":{
						"POSITION":0,
						"NORMAL":1,
						"TEXCOORD_0":2
					},
					"indices":3,
					"material":0
				}
			]
		},
		{
			"name":"cowboy-idle0001",
			"primitives":[
				{
					"attributes":{
						"POSITION":4,
						"NORMAL":5,
						"TEXCOORD_0":6
					},
					"indices":3,
					"material":1
				}
			]
		},
		{
			"name":"cowboy-idle0002",
			"primitives":[
				{
					"attributes":{
						"POSITION":7,
						"NORMAL":8,
						"TEXCOORD_0":9
					},
					"indices":3,
					"material":2
				}
			]
		},
		{
			"name":"cowboy-idle0000.001",
			"primitives":[
				{
					"attributes":{
						"POSITION":10,
						"NORMAL":11,
						"TEXCOORD_0":12
					},
					"indices":3,
					"material":0
				}
			]
		},
		{
			"name":"cowboy-idle0002.001",
			"primitives":[
				{
					"attributes":{
						"POSITION":13,
						"NORMAL":14,
						"TEXCOORD_0":15
					},
					"indices":3,
					"material":2
				}
			]
		},
		{
			"name":"cowboy-idle0001.001",
			"primitives":[
				{
					"attributes":{
						"POSITION":16,
						"NORMAL":17,
						"TEXCOORD_0":18
					},
					"indices":3,
					"material":1
				}
			]
		}
	],
	"textures":[
		{
			"sampler":0,
			"source":0
		},
		{
			"sampler":0,
			"source":1
		},
		{
			"sampler":0,
			"source":2
		}
	],
	"images":[
		{
			"mimeType":"image/png",
			"name":"cowboy-idle0000",
			"uri":"cowboy-idle0000.png"
		},
		{
			"mimeType":"image/png",
			"name":"cowboy-idle0001",
			"uri":"cowboy-idle0001.png"
		},
		{
			"mimeType":"image/png",
			"name":"cowboy-idle0002",
			"uri":"cowboy-idle0002.png"
		}
	],
	"accessors":[
		{
			"bufferView":0,
			"componentType":5126,
			"count":4,
			"max":[
				0.3171965181827545,
				0,
				0.5
			],
			"min":[
				-0.3171965181827545,
				0,
				-0.5
			],
			"type":"VEC3"
		},
		{
			"bufferView":1,
			"componentType":5126,
			"count":4,
			"type":"VEC3"
		},
		{
			"bufferView":2,
			"componentType":5126,
			"count":4,
			"type":"VEC2"
		},
		{
			"bufferView":3,
			"componentType":5123,
			"count":6,
			"type":"SCALAR"
		},
		{
			"bufferView":4,
			"componentType":5126,
			"count":4,
			"max":[
				0.2534482777118683,
				0,
				0.5
			],
			"min":[
				-0.2534482777118683,
				0,
				-0.5
			],
			"type":"VEC3"
		},
		{
			"bufferView":5,
			"componentType":5126,
			"count":4,
			"type":"VEC3"
		},
		{
			"bufferView":6,
			"componentType":5126,
			"count":4,
			"type":"VEC2"
		},
		{
			"bufferView":7,
			"componentType":5126,
			"count":4,
			"max":[
				1.0191082954406738,
				0,
				0.5
			],
			"min":[
				-1.0191082954406738,
				0,
				-0.5
			],
			"type":"VEC3"
		},
		{
			"bufferView":8,
			"componentType":5126,
			"count":4,
			"type":"VEC3"
		},
		{
			"bufferView":9,
			"componentType":5126,
			"count":4,
			"type":"VEC2"
		},
		{
			"bufferView":10,
			"componentType":5126,
			"count":4,
			"max":[
				0.3171965181827545,
				0,
				0.5
			],
			"min":[
				-0.3171965181827545,
				0,
				-0.5
			],
			"type":"VEC3"
		},
		{
			"bufferView":11,
			"componentType":5126,
			"count":4,
			"type":"VEC3"
		},
		{
			"bufferView":12,
			"componentType":5126,
			"count":4,
			"type":"VEC2"
		},
		{
			"bufferView":13,
			"componentType":5126,
			"count":4,
			"max":[
				1.0191082954406738,
				0,
				0.5
			],
			"min":[
				-1.0191082954406738,
				0,
				-0.5
			],
			"type":"VEC3"
		},
		{
			"bufferView":14,
			"componentType":5126,
			"count":4,
			"type":"VEC3"
		},
		{
			"bufferView":15,
			"componentType":5126,
			"count":4,
			"type":"VEC2"
		},
		{
			"bufferView":16,
			"componentType":5126,
			"count":4,
			"max":[
				0.2534482777118683,
				0,
				0.5
			],
			"min":[
				-0.2534482777118683,
				0,
				-0.5
			],
			"type":"VEC3"
		},
		{
			"bufferView":17,
			"componentType":5126,
			"count":4,
			"type":"VEC3"
		},
		{
			"bufferView":18,
			"componentType":5126,
			"count":4,
			"type":"VEC2"
		}
	],
	"bufferViews":[
		{
			"buffer":0,
			"byteLength":48,
			"byteOffset":0,
			"target":34962
		},
		{
			"buffer":0,
			"byteLength":48,
			"byteOffset":48,
			"target":34962
		},
		{
			"buffer":0,
			"byteLength":32,
			"byteOffset":96,
			"target":34962
		},
		{
			"buffer":0,
			"byteLength":12,
			"byteOffset":128,
			"target":34963
		},
		{
			"buffer":0,
			"byteLength":48,
			"byteOffset":140,
			"target":34962
		},
		{
			"buffer":0,
			"byteLength":48,
			"byteOffset":188,
			"target":34962
		},
		{
			"buffer":0,
			"byteLength":32,
			"byteOffset":236,
			"target":34962
		},
		{
			"buffer":0,
			"byteLength":48,
			"byteOffset":268,
			"target":34962
		},
		{
			"buffer":0,
			"byteLength":48,
			"byteOffset":316,
			"target":34962
		},
		{
			"buffer":0,
			"byteLength":32,
			"byteOffset":364,
			"target":34962
		},
		{
			"buffer":0,
			"byteLength":48,
			"byteOffset":396,
			"target":34962
		},
		{
			"buffer":0,
			"byteLength":48,
			"byteOffset":444,
			"target":34962
		},
		{
			"buffer":0,
			"byteLength":32,
			"byteOffset":492,
			"target":34962
		},
		{
			"buffer":0,
			"byteLength":48,
			"byteOffset":524,
			"target":34962
		},
		{
			"buffer":0,
			"byteLength":48,
			"byteOffset":572,
			"target":34962
		},
		{
			"buffer":0,
			"byteLength":32,
			"byteOffset":620,
			"target":34962
		},
		{
			"buffer":0,
			"byteLength":48,
			"byteOffset":652,
			"target":34962
		},
		{
			"buffer":0,
			"byteLength":48,
			"byteOffset":700,
			"target":34962
		},
		{
			"buffer":0,
			"byteLength":32,
			"byteOffset":748,
			"target":34962
		}
	],
	"samplers":[
		{
			"magFilter":9729,
			"minFilter":9987,
			"wrapS":33071,
			"wrapT":33071
		}
	],
	"buffers":[
		{
			"byteLength":780,
			"uri":"lobbyPositions.bin"
		}
	]
}
